<svg xmlns="http://www.w3.org/2000/svg" width="57.468" height="91.175" viewBox="0 0 57.468 91.175">
  <g id="noun_Rock_Climbing_3573300" data-name="noun_Rock Climbing_3573300" transform="translate(-36.686 -12.194)">
    <g id="Groupe_377" data-name="Groupe 377" transform="translate(36.948 12.456)">
      <path id="Tracé_911" data-name="Tracé 911" d="M72.128,59.623a9.147,9.147,0,0,1,1.436.229,4.061,4.061,0,0,1,1.569.821,8.749,8.749,0,0,0,.665-2.2,11.116,11.116,0,0,1,.075-2.173,15.13,15.13,0,0,0,.073-3.679,3.431,3.431,0,0,0-.337-1.238,6.108,6.108,0,0,1-.944.155c-.457.119-.88.242-1.327.374a8.38,8.38,0,0,1-1.951.166,1.1,1.1,0,0,1-.319-.046,5.887,5.887,0,0,0-1.9,1.769c.246.976,1.925.726,2.375,1.706A8.151,8.151,0,0,1,72.4,58.58C72.393,58.629,72.315,59.623,72.128,59.623Zm21.624,28.09a.428.428,0,0,1,.033.566c-.223,1.619-.753,3.255-.866,4.866a9.516,9.516,0,0,1-.994,4.012c-1.081,1.843-3.685,4-5.864,4.255a22.913,22.913,0,0,0-2.768.968c-.607.164-1.213.305-1.824.456a7.917,7.917,0,0,1-3.89.073,37.551,37.551,0,0,0-4.486-1.063c-1.583-.352-3.167.023-4.71-.606a.507.507,0,0,1-.219-.176c-.347-.123-1.056-.383-1.245-.792-.616-.088-1.236,0-1.879-.1-1.309-.182-2.654-.209-3.944-.515a13.234,13.234,0,0,0-3.489-.753.9.9,0,0,1-.6-.15c-.566.319-1.459.055-2.029-.018v2.517a.457.457,0,0,1-.912,0c0-.88,0-1.746,0-2.612a19.674,19.674,0,0,1-2.927-.44c-1.231-.306-2.235-.88-3.42-1.218a.44.44,0,0,1-.264-.647.951.951,0,0,1-.01-.934c.3-.406.183-1.067.333-1.56.1-.342.762-.753.483-1.044a1.089,1.089,0,0,1-.118-1,.8.8,0,0,1-.11-.186c-.424-1.09-.305-2.6-.556-3.762a15.448,15.448,0,0,1-.11-3.278,12.98,12.98,0,0,1,1.273-6.115,3.715,3.715,0,0,1-.872-1.373,3.653,3.653,0,0,0-.742-1.441,2.453,2.453,0,0,1-.415-.528.317.317,0,0,1-.037-.1,3.2,3.2,0,0,1-1.378-.508,6.162,6.162,0,0,1-.543-.383,4.526,4.526,0,0,1-1.482-.743,7.268,7.268,0,0,1-1.746-2.094.825.825,0,0,1-.661.324,3.84,3.84,0,0,1-1.407-.145c-.911-.361-.543-1.56-1.253-2.043a.459.459,0,0,1-.146-.616,1.784,1.784,0,0,1-.361-.792c-.068-.392-.2-.761-.241-1.158a2.152,2.152,0,0,1-.3-1.906,3.782,3.782,0,0,0,.44-1.418,1.279,1.279,0,0,1,.264-.792,4.317,4.317,0,0,1,2.5-1.378.455.455,0,0,1,.241.032c-.291-2.74-.424-5.508-.5-8.258a4.359,4.359,0,0,1,1.067-3.032c0-.005,0-.005,0-.01a24.013,24.013,0,0,1-.447-3.028,6.574,6.574,0,0,1,.653-2.207,6.01,6.01,0,0,1,1.258-1.9.429.429,0,0,1-.018-.155,11.145,11.145,0,0,1,1.619-4.52,8.181,8.181,0,0,1,2.718-2.928,4.558,4.558,0,0,1,.743-2.353,9.378,9.378,0,0,1,1.518-2.978c1-1.022,1.573-3.338,3.088-3.845.282-.088.556-.186.829-.282a7.381,7.381,0,0,1-.844-2.649c-.264-1.217-.968-2.1-1.144-3.343a9.521,9.521,0,0,1-.164-3.652c.279-1.158,1.355-1.254,2.2-1.737a14.074,14.074,0,0,1,2.618-.949,14.1,14.1,0,0,1,2.353-1.063,2.256,2.256,0,0,1,2.189.73,6.5,6.5,0,0,1,2.034,3.288c.137-.164.3-.384.528-.693,1.833-2.572,6.294-1.419,8.56-.078.041-.032.073-.059.114-.088,1.8-1.2,3.782-.461,5.7-.05,1,.215,1.628,1.573,2.43,2.1a4.85,4.85,0,0,1,1.6,1.646,8.514,8.514,0,0,1,.356,5.71.6.6,0,0,1-.082.141c.287.588,1.076,1.15,1.441,1.642a8.532,8.532,0,0,1,1.6,2.416c.374,1.5,1.551,2.815,2.472,4.113,1.017,1.432.968,2.572,1.564,4.134.34.923,1.265,2.5.986,3.515a1.774,1.774,0,0,1-.852.775c.634,1.655,1.172,3.347,1.838,4.984,1.19,2.914,1.067,6.2,2.307,9.071.8,1.86.557,4.272.237,6.22-.183,1.122.009,5.445-1.127,6.233a1.886,1.886,0,0,1,.237.4,17.593,17.593,0,0,1,.4,2.777,25.052,25.052,0,0,1,.474,3.539c.046.834-.228,1.468-.228,2.28,0,1.226.088,2.43.128,3.652a13.1,13.1,0,0,1-.588,5.426,7.786,7.786,0,0,1,1.391,1.318Zm-2.435,8.409A35.749,35.749,0,0,0,92.9,88.128a2.54,2.54,0,0,0-2.048-1.008c-.639,0-1.637-.305-2.148.21a2.639,2.639,0,0,1-1.71.748A9.764,9.764,0,0,1,84.4,92.155c-1.117.921-2.681.743-4.008.743-2.07,0-4.31-.465-6.3.209a2.563,2.563,0,0,1-2.518-.533c-.921.3-1.988.424-2.408,1.431a13.039,13.039,0,0,0-.493,1.9c-.187.743.05,1.436-.088,2.175-.114.616-.917,1.847-.119,2.13a.428.428,0,0,1,.219.176c1.29.493,2.663.146,3.958.433,1.407.315,2.914.4,4.287.839a10.512,10.512,0,0,0,8.13-.944c.985-.606,2.07-.428,3.059-1.222C89.3,98.552,90.751,97.572,91.317,96.122Zm.654-32.833a28.314,28.314,0,0,0,.415-4.811,14.027,14.027,0,0,0-.935-3.506c-.785-2.96-.88-5.965-2.138-8.81-.56-1.282-.968-2.649-1.459-3.977a2.156,2.156,0,0,1-.616.133,4,4,0,0,1-1.407-.557c-1.217-.616-1.076.1-1.3,1.022-.479,1.911-.342,3.821-.872,5.709a1.061,1.061,0,0,1-.44.656c.209.792,1.035,1.551.775,2.258-.506,1.391-1.126,3.137-.274,4.477.675,1.056.077,2.139,1.327,2.923.479.3.821,1.2,1.372.935a.469.469,0,0,1,.552.073,3.146,3.146,0,0,1,.748,1.651,5.862,5.862,0,0,0,1.546,2.247,3.009,3.009,0,0,1,.1,2.878,5.9,5.9,0,0,1,2.344.9C91.139,67.051,91.864,64.009,91.971,63.289Zm-.059,14.027c0-.319.269-1.478.255-1.747-.114-2.175-.743-4.241-.862-6.384-.045-.756-1.407-1.049-1.9-1.354-1.113-.675-2.759,0-3.908.255-1.591.352-1.874,1.259-3.055,2.052-1.29.871-2.654-.032-4.018.784-1.583.958-3.447.6-4.884,2.079a7.552,7.552,0,0,1-2.85,2.1c.114.4.232.8.384,1.217,1.03,2.837,2.5,5.555,3.666,8.318a2.3,2.3,0,0,1,.214.088.4.4,0,0,1,.237-.041c2.375.311,4.514.9,6.949.47a5.963,5.963,0,0,1,4,.73,1.47,1.47,0,0,1,.93,1.259,2.159,2.159,0,0,0,1.177-.653,1.083,1.083,0,0,1,.456-.287,6.768,6.768,0,0,1,1.692,0c.305,0,.7-.05,1.085-.041a12.324,12.324,0,0,0,.507-5.864,25.99,25.99,0,0,1-.074-2.983ZM88.4,66.522c1.419-2.955-.912-1.806-1.259-3.6-.05-.251-.6-2.231-.552-2.257-.128.072-.352.245-.528.232-.579-.037-.661-.064-.985-.528-.447-.638-.976-.756-1.377-1.285-.625-.826-.229-2.012-.771-2.75a2.435,2.435,0,0,1-.515-1.989c.088-.771.885-3,.44-3.575a3.317,3.317,0,0,1-.515-1.377,3.174,3.174,0,0,0-.67.133.3.3,0,0,1-.241.128,3.085,3.085,0,0,1-1.82-.392,10.929,10.929,0,0,0-1.359-1.131.887.887,0,0,1,.018.156,1.221,1.221,0,0,1-.4.907c.109.826-.716,1.359-1.464,1.77a17.961,17.961,0,0,1,.792,3.4c.036,1.131-.475,2.271-.475,3.431a3.151,3.151,0,0,1-.141,1.514c-.849,1.272-.839,2.95-1,4.4a2.7,2.7,0,0,1-.369,1.373c-1.127,1.523-.488,3.976-.128,5.791A11.6,11.6,0,0,1,79.735,69.5c2.408.041,2.235-.186,3.2-1.455a2.123,2.123,0,0,1,1.108-.515,15.163,15.163,0,0,1,4.323-.835.5.5,0,0,1,.035-.176Zm-.269-25.559c.945-.766-.374-3.079-.647-4.081a13.392,13.392,0,0,0-2.353-4.628c-.278-.375-1.249-1.268-1.407-1.861-.324-1.163.133-.829-1.026-2.307-.616-.792-1.842-1.769-2.167-2.781a.4.4,0,0,1,.151-.474c.506-1.487.428-4.688-.816-5.777-.415-.352-1.127-.625-1.5-1-.792-.792-.6-1.432-2.006-1.678-1.428-.246-3.105-.916-4.432.078-.83.625-.232,2.239-.046,3.2a1.576,1.576,0,0,1,.653.269.473.473,0,0,1,.141.629,2.1,2.1,0,0,1,.06.223.873.873,0,0,1,.537.137,1.524,1.524,0,0,1,.206,1.965,1.81,1.81,0,0,1-.2,1.509.346.346,0,0,1,.1.109c.219.315.6.375.852.653a1.774,1.774,0,0,1,.319.629c.036.1.088.388.187.451a.46.46,0,0,1,.191.474.484.484,0,0,1-.1.4c-1.185,1.451-1.185,4.031-1.158,5.755a11.7,11.7,0,0,1-.57,2.216,12.583,12.583,0,0,0-.114,2.307c0,1.847,1.537,2.467,1.883,4.023.176.775-.055,2.649.779,3.224a.429.429,0,0,1,.176.238c.088-.014.168-.024.251-.041a1.288,1.288,0,0,1,1.531,1.24,1.144,1.144,0,0,1,.557,1.09.708.708,0,0,1,.088.009,3.519,3.519,0,0,1,1.5,1.044,2.45,2.45,0,0,0,1.468.528,2.973,2.973,0,0,1,.734-.142c1.5-.164,1.213-2.5,1.213-3.42a18.1,18.1,0,0,1,.72-3.881c.41-1.8,2.627-.013,3.708-.1A.469.469,0,0,1,88.129,40.963Zm-3.9,50.161c.67-.825,2.174-2.562,1.742-3.808a3.665,3.665,0,0,1-1.117,2.472A4.815,4.815,0,0,1,81.2,91.371a30.419,30.419,0,0,1-6.634-.593.454.454,0,0,1-.548-.123c-.4-.1-.8-.219-1.19-.352a.754.754,0,0,1-.3-.119c-.278-.1-.556-.2-.829-.319a.032.032,0,0,0-.014-.009c-.287-.088-.6-.176-.9-.274a3.012,3.012,0,0,0,3.666,2.439,11.949,11.949,0,0,1,2.8-.118C79.059,91.909,82.917,92.729,84.23,91.124Zm.917-4.674c-.05-.027-.1-.05-.15-.077a3.919,3.919,0,0,0-1.277-.315.4.4,0,0,1-.032.2,2.671,2.671,0,0,1-.968,1.414,4.716,4.716,0,0,1-1.455.829,3.378,3.378,0,0,0,.785,1.646.4.4,0,0,1,.123.2,3.464,3.464,0,0,0,1.263-.533,3.935,3.935,0,0,0,1.707-3.357Zm-3,.5a1.715,1.715,0,0,0,.643-.894c-.543.037-1.09.114-1.671.151-.164.009-.319.009-.479.013a7.589,7.589,0,0,0,.347,1.414,3.079,3.079,0,0,0,1.157-.684Zm-2.085,3.519c.352.005.7.01,1.056,0a6.138,6.138,0,0,1-.743-1.778,12.5,12.5,0,0,1-.661-2.476,1.094,1.094,0,0,1-.176-.01c0,.005,0,.01,0,.01a5.766,5.766,0,0,0,.068,2.526,9.6,9.6,0,0,0,.458,1.725Zm-.98-.018a7.907,7.907,0,0,1-.415-1.743.273.273,0,0,1-.1-.009,3.631,3.631,0,0,0-.771-.077c0,.009,0,.018-.01.023a9.29,9.29,0,0,1-.88,1.646c.745.089,1.474.138,2.176.157Zm-.493-2.668a4.838,4.838,0,0,1,.033-1.664c-.206-.027-.411-.05-.616-.082a12.516,12.516,0,0,1,.018,1.7c.184.007.376.016.562.039ZM77.318,48.446c.136-.274-.643-.046-.716-.027l-.652.164v.328c.077-.014.159-.023.237-.037C76.489,48.823,77.159,48.765,77.318,48.446Zm-.1-1.067c.077-.219.088-.556-.251-.474-.228.05-.456.114-.684.159-.132.028-.264.069-.4.1a2.287,2.287,0,0,1,.06.465c.328-.077.656-.159.989-.223a1.472,1.472,0,0,1,.283-.027Zm-.142,40.535A9.61,9.61,0,0,0,77.09,85.9v-.009l-.249-.038a10.583,10.583,0,0,1-.88,2.778,6.66,6.66,0,0,1-.7,1.382c.187.037.37.077.557.11.018-.018.023-.041.046-.06a4.461,4.461,0,0,0,1.19-1.992A.463.463,0,0,1,77.076,87.914Zm-.829-41.775c.15-.037.3-.069.44-.1-.176-.574-1.359-.255-1.783-.169-.4.088-.8.142-1.186.256-.228.063-.52-.069-.729.036-.528.264-.985-.528-.456-.784a2.469,2.469,0,0,1,.925-.215.366.366,0,0,1,0-.123c.369-1.664-2.572.844-2.526.821-1.2.643-1.163,1.523-1.81,2.495a14.5,14.5,0,0,1-3.036,3.21,29.292,29.292,0,0,0-4.255,3.95,11.233,11.233,0,0,1-2.267,1.919.462.462,0,0,1-.182.88c-.21,0-.415.027-.625.045a.986.986,0,0,1,.013.106c.06.588-.852.583-.912,0a4.332,4.332,0,0,0-1-2.185A5.542,5.542,0,0,0,54.77,55.5a13.634,13.634,0,0,1-2.051-.729,4.123,4.123,0,0,0,.036.456c.088.579-.792.825-.88.246a4.246,4.246,0,0,0-.206-1.418c-.191-.392-.47-.7-.683-1.077-.488-.866-1.319-1.012-2.034-1.637-.44-.392.2-1.035.647-.647a2.385,2.385,0,0,0,.606.374.066.066,0,0,1,.009-.037,3.255,3.255,0,0,1-.93-.994c-.616.05-1.217.187-1.824.223a3.846,3.846,0,0,1-1.833-.52c-.533-.251-.069-1.04.457-.792a3.218,3.218,0,0,0,1.056.342.455.455,0,0,1,.537-.72c.379.2.771.72,1.213.457H48.9a2.782,2.782,0,0,1,.074-1.282.946.946,0,0,1-.616-.981,8.306,8.306,0,0,1,.232-2.061c-.829.114-2.088.821-2.639-.032a2.608,2.608,0,0,1-.176-.338,2.011,2.011,0,0,0-.424.315,1.676,1.676,0,0,1-.68.352c-.574.119-.816-.756-.241-.88a1.068,1.068,0,0,0,.46-.274,2.477,2.477,0,0,1,.68-.41h0a10.178,10.178,0,0,1,.133-1.918c.259-2.34,1.787-5.468,4.4-5.778a12.308,12.308,0,0,0,2.217-.792,3.561,3.561,0,0,0,.756-1.386,12.836,12.836,0,0,0,.21-1.947,8.987,8.987,0,0,1-1.815.255.457.457,0,0,1,0-.912c2.234-.059,4.35-1.427,6.612-1.6,1.523-.114,2.717-.935,4.191-1.177A10.576,10.576,0,0,0,64.2,28a.388.388,0,0,1,.346-.15c.726.033,1.437.06,2.162.064.52,0,1.231.315,1.706.352,1.034.088,4.2-.734,3.337-2.463-.383.082-1,.792-1.185.957a1.791,1.791,0,0,1-1.309.561.457.457,0,0,1,0-.912c.547-.009.957-.528,1.382-.925-.333.036-.666.073-1,.088-.588.033-.588-.88,0-.912.88-.049,1.737-.2,2.622-.223.01-.028.01-.055.023-.088a7.556,7.556,0,0,0,.332-.88c.06-.176.123-.119-.128-.1-.128.009-.255.018-.383.032-.6.073-1.181.176-1.783.192a.457.457,0,0,1,0-.912c.1,0,.2-.01.3-.018a2.167,2.167,0,0,0-.018-.352.466.466,0,0,1-.287-.853,5.379,5.379,0,0,1,1.527-.46.382.382,0,0,0-.018-.139.606.606,0,0,1-.045-.264c-1.008-.256-2.453,1.309-3.056,1.714a18.693,18.693,0,0,0-3.479,2.9.378.378,0,0,1-.574.036c-1.168-.1-2.3.023-3.471.023a11.7,11.7,0,0,0-3.224.137,32.322,32.322,0,0,0-3.949.98.415.415,0,0,1-.242.114c-.018.009-.036.013-.055.023-1.108.6-2.307,1.049-2.658,2.439a2.436,2.436,0,0,1-.5.808c-1.031,1.208-2.96,3.8-2.832,5.527a.361.361,0,0,1-.055.552,7.941,7.941,0,0,0-2.777,2.919c-.1.228-.209.44-.319.652a.4.4,0,0,1,.114.288.865.865,0,0,0,.013.305c0,.01,0,.023.009.033a.462.462,0,0,1-.176.88.412.412,0,0,1-.4-.269.313.313,0,0,1-.127-.066,6.914,6.914,0,0,0-.5,1.486c.136-.109.274-.218.42-.328.464-.36.917.434.46.792A7.086,7.086,0,0,0,41.692,46.4a6.039,6.039,0,0,0,.169,2.959,4.052,4.052,0,0,1,.341-.255c.488-.324.945.464.457.792-2.531,1.692-1.519,4.588-1.509,7.055a44.173,44.173,0,0,0,.269,4.537c1.641.52,3.059,1.555,4.926,1.382.866-.082,4.469-.387,4.865-1.537A7.286,7.286,0,0,1,49.8,60.76,14.982,14.982,0,0,1,48.62,61.8a4.591,4.591,0,0,1-1.049.305,5.857,5.857,0,0,1-1.263.169c-.464.037-.9.187-1.368.228-.588.05-.579-.862,0-.912a22,22,0,0,0,2.622-.41,3.144,3.144,0,0,0,1.414-.921c-.726-.461-1.436-.926-2.152-1.377a.428.428,0,0,1-.164.1c-.232.088-.428.264-.666.361a3.036,3.036,0,0,1-.976.114,3.915,3.915,0,0,1-1.035-.018c-.282-.088-.556-.2-.834-.3-.548-.206-.311-1.085.241-.88a3.652,3.652,0,0,0,1.962.246,2.268,2.268,0,0,0,.57-.182c-.88-.534-1.779-1.045-2.732-1.509-.528-.264-.064-1.044.461-.792,1.253.616,2.375,1.236,3.483,1.915h1.912a.457.457,0,0,1,0,.912h-.484c.428.288.866.583,1.313.9,1.943,1.363,4.52,1.158,6.69,2.006.027,0,.05-.013.082-.018a14.1,14.1,0,0,0,4.583-.44A14.648,14.648,0,0,0,64.4,59.37c1.473-.944,1.8-2.563,2.659-3.94,1.189-1.9,2.207-3.762,4.368-4.542a.386.386,0,0,1,.515.252c.866-.1,1.965-.369,2.982-.552a5.012,5.012,0,0,0,.7-.274.5.5,0,0,1,.209-.1,5.755,5.755,0,0,0,.8-.46c-.825.176-1.769.2-2.312.341a.456.456,0,1,1-.242-.88,7.061,7.061,0,0,1,.958-.182v-.256c-.279.046-.561.083-.835.114-.584.069-.579-.844,0-.912.283-.032.566-.082.844-.141a2.667,2.667,0,0,0-.027-.429c-.182.055-.365.11-.543.176-.556.206-.792-.679-.246-.88a17.467,17.467,0,0,1,2.019-.566Zm-.305,39.568-.5-.068a1.092,1.092,0,0,1-.041.159c-.155.4-.273.8-.387,1.209.123.046.246.088.374.132a.5.5,0,0,1,.182.109A5.155,5.155,0,0,0,75.941,85.706Zm-.726,2.317a.388.388,0,0,1-.073-.01c-.128-.04-.255-.088-.378-.132A7.09,7.09,0,0,1,74.14,89.4a2.422,2.422,0,0,1-.206.306c.114.032.233.059.347.088a8.568,8.568,0,0,0,.935-1.771ZM74.832,61.8a.493.493,0,0,1-.113-.136c-.552-1.045-2.152-.889-3.161-1.282a.768.768,0,0,1-.332-1.154c.415-.625.1-1.541-.137-2.193-.3-.812-.506-1.332-1.326-1.66a2.918,2.918,0,0,1-1.158-.7,46.711,46.711,0,0,1-2.439,4.2,8.9,8.9,0,0,1-3.635,2.8,2.884,2.884,0,0,1,1.226.42c2.326,1.518,2.7,3.579,3.722,6.069A20.915,20.915,0,0,0,69.5,72.3a6.626,6.626,0,0,1,.911,1.9c1.441-.792,2.476-1.988,3.826-2.86a20.64,20.64,0,0,1-.42-5.426c.088-.871.825-1.295.838-2.2a10.59,10.59,0,0,1,.175-1.923Zm-.454-16.74c.128-.027.256-.05.384-.068a2.687,2.687,0,0,1-.324-.561,3.768,3.768,0,0,1-.06.629Zm-.072,40.968a.377.377,0,0,1-.047-.046,2.838,2.838,0,0,1-.378-.574.784.784,0,0,1-.018-.5,34.187,34.187,0,0,1-1.869-3.976,17.455,17.455,0,0,0-1.31-3.288c-.67-1.236-.72-2.677-1.363-3.9-.46-.866-.976-1.714-1.445-2.581-.639-1.186-1.085-2.426-1.7-3.621-.51-1-.538-2.859-1.427-3.575a5.06,5.06,0,0,0-5.208-1.09c-.888.269-1.947.159-2.868.352a16.216,16.216,0,0,0-1.605,1.564c-1.09,1.309.1,3.023.123,4.469,0,.106.013.206.023.31.811-.242,1.564-.557,2.375-.829a12.051,12.051,0,0,1,2.781-.926c.588-.05.583.862,0,.912a11.875,11.875,0,0,0-2.815.976c-.374.142-.7.411-1.085.528s-.748.176-1.117.264a4.886,4.886,0,0,0,.379,1.02A10.786,10.786,0,0,0,58.58,70.2a7.333,7.333,0,0,1,3.238-.338c.456,0,.456.912,0,.912H61.6a15.224,15.224,0,0,0,1.759,6.861c1.382,2.166,3.215,3.782,4.478,6.055a26.929,26.929,0,0,1,1.869,2.919c.465,1.195.315,1.537,1.541,1.935s2.331,1.021,2.659-.839c.019-.125.243-1.073.4-1.684Zm-.13-42.386a7.483,7.483,0,0,1-.2-1.728c0-.957-.944-1.527-1.382-2.287a4.258,4.258,0,0,1-.52-2.244,8.68,8.68,0,0,1,.146-2.551,22.45,22.45,0,0,0,.616-4.486,8.221,8.221,0,0,1,1.154-3.621,1.26,1.26,0,0,1-.142-.246c-.1-.218-.142-.6-.329-.756-.164-.142-.392-.192-.565-.338a2.2,2.2,0,0,1-.176-.186.464.464,0,0,1-.169.1.46.46,0,0,1-.009.155c.633,1.464-.516,2.545-1.743,3.3a4.486,4.486,0,0,1-2.964.369c-1.067-.077-2.111-.374-3.187-.374-.9.456-1.888.155-2.828.461a13.924,13.924,0,0,1-3.15,1.012,10.856,10.856,0,0,0-2.139.41,17.234,17.234,0,0,0,.88,2.481c.328,1.213-.282,2.043-.44,3.238a.46.46,0,0,1-.051.15,2.464,2.464,0,0,1,.037.319c.3.15.629.069.9.369a4.827,4.827,0,0,1,.52.792c.57.123.647.606.451,1.1a4.616,4.616,0,0,0,.734.493c.122.059.246.123.369.187a1.231,1.231,0,0,0,.465.077.837.837,0,0,1,.743.88,1.413,1.413,0,0,1-.246.981,1.056,1.056,0,0,1,.229.433,1.319,1.319,0,0,1-.44,1.15,3.192,3.192,0,0,1-.779.556c.574.4,1.131.83,1.715,1.217a11.574,11.574,0,0,0,2.489,1.392c.607.223.583.7.652,1.268a3.406,3.406,0,0,0,1.332,2.667,10.934,10.934,0,0,0,1.034-1.094c.767-.939,1.086-2.33,1.852-3.2C69.775,45.249,73.19,42.7,74.176,43.64ZM72.739,22.353c.1-.1.082-.361.063-.488a.527.527,0,0,0-.04-.164H72.68c-.05.009-.1.022-.146.032-.324.088-.7.146-1.063.232a3.328,3.328,0,0,1,.064.588c.191-.027.383-.055.574-.073a5.356,5.356,0,0,1,.566-.037.292.292,0,0,1,.063-.09ZM70.98,19.722c-.176-1.177-.716-2.326-.246-3.27a7.191,7.191,0,0,0-5.381-.912c-1.027.237-1.583.337-2.065,1.341a1.661,1.661,0,0,1-.566.639c-.3.2-.6.374-.894.543a2.139,2.139,0,0,1-.306.3.455.455,0,0,1-.374.1,4.92,4.92,0,0,0-1.5,1.326,7.061,7.061,0,0,0-1.636,4.634.2.2,0,0,1-.014.05,26.628,26.628,0,0,1,6.808-.141c.629-.657,1.418-1.113,2.079-1.751a26.1,26.1,0,0,1,2.287-1.824,5.652,5.652,0,0,1,1.806-1.034Zm-.106,72.116a5.546,5.546,0,0,1-.849-1.624c-1.056.352-3.255.684-3.105-.917a1.378,1.378,0,0,1,1.313-1.268,7.885,7.885,0,0,1,.976.032c-.729-1.531-1.627-2.863-2.449-4.377-.9-1.655-2.339-2.768-3.347-4.282a.414.414,0,0,1-.264.027A5.526,5.526,0,0,1,61.9,80.9a5.682,5.682,0,0,0-2.3,2.618,4.783,4.783,0,0,1-.968,1.723,3.318,3.318,0,0,0-.853,1.085,12.578,12.578,0,0,1,2.071,1.459c.347.3,1.341.8,1.482,1.268.871,2.868-1.847,4.71-3.812,6.292a.48.48,0,0,1,.032.137,8.759,8.759,0,0,1,.014,2.467c.347.109,1.787.2,1.952.251a15.4,15.4,0,0,0,3.8.871,27.534,27.534,0,0,1,3.812.287,3.231,3.231,0,0,0,.6-1.9,4,4,0,0,1-.059-1.336,20.27,20.27,0,0,1,.88-3.073C68.89,92.291,70,92.063,70.874,91.837Zm-1.063-2.522a1.653,1.653,0,0,0-.588-.347,4.749,4.749,0,0,0-.57-.023c-.365-.009-.885,0-.835.534.028.3,1.473-.018,1.993-.166ZM65.43,51.022a3.394,3.394,0,0,1-1.113-1.5c-.347-.792-.164-2.075-1.049-2.422-1.61-.625-2.768-1.86-4.191-2.759a.473.473,0,0,1-.151-.146c-.077.013-.155.027-.232.036a11.067,11.067,0,0,1-.981,2.387,1.766,1.766,0,0,1-1.413,1.1,2.532,2.532,0,0,1-.147.365,3.261,3.261,0,0,0-.176.3,2.572,2.572,0,0,1-.369.7,1.207,1.207,0,0,1-.642.461,2.412,2.412,0,0,1-.6-.018c-.493.894-1.09,1.026-1.956,1.377a3.265,3.265,0,0,1,.146.693,18.72,18.72,0,0,1,.219,2.079.44.44,0,0,1-.023.114c1.436.593,3.046.844,4.41,1.573a3.312,3.312,0,0,1,1.3,1.776,11.717,11.717,0,0,0,2.28-1.733,13.846,13.846,0,0,1,2.522-2.767C63.961,52.158,64.718,51.611,65.43,51.022ZM62.83,78.5c.009,0,.013-.013.018-.018a16.487,16.487,0,0,1-2.157-7.653c-.228.009-.457.022-.666.032a3.029,3.029,0,0,0-1.1.274v.027a16.638,16.638,0,0,1,.379,1.856,3.746,3.746,0,0,1-.15.917,4.526,4.526,0,0,1-.365.73.463.463,0,0,1-.4.679,10,10,0,0,1-3.315-.246,4.025,4.025,0,0,0-.821-.146,4.565,4.565,0,0,1,.088,1.956c-.083.251-.2.538-.311.83a.429.429,0,0,1,.082.387c-.209.848.246,1.574.352,2.385.123.99-.6,1.779-.58,2.832.023.917.082,1.856.137,2.79a6.362,6.362,0,0,1,2.859-.159,1.613,1.613,0,0,1,.725-1.136c.912-.465.935-1.683,1.451-2.426.99-1.432,2.495-2.3,3.5-3.725a.448.448,0,0,1,.277-.186ZM61.252,17.205c.374-.968-.616-2.307-1.226-2.9-1.286-1.231-1.966-.762-3.343-.133-1.309.6-5.053.99-5.053,3.261a9.824,9.824,0,0,0,1.209,4.378c.483,1,.123,3.051,1.1,3.782a29.389,29.389,0,0,1,3.215-.957.44.44,0,0,1-.05-.21,6.985,6.985,0,0,1,1.422-4.656,7.557,7.557,0,0,1,1.993-2.2,6.552,6.552,0,0,1,.734-.363Zm-.88,73.3c.223-1.671-1.108-1.759-2.079-2.681a3.324,3.324,0,0,0-1.19-.7.448.448,0,0,1-.215-.068,5.014,5.014,0,0,0-2.815,0c.036.661.063,1.319.063,1.969a22.473,22.473,0,0,0,.816,5.806,11,11,0,0,1,.023,2.951c.192.018.383.046.574.077,1.327.219,1.2-.912,1.127-1.87-.4.083-.807-.42-.434-.748,1.5-1.318,3.86-2.649,4.133-4.733Zm-.264-49.29a.409.409,0,0,0,.176-.456h-.069c-.643.032-1.355-.57-1.852-.935a2.463,2.463,0,0,1-.406.311.423.423,0,0,0,.15.223,1.063,1.063,0,0,1,.3.318.88.88,0,0,1,.122.648c-.186.44-.542.451-.894.729a3.205,3.205,0,0,1-1.759.456,2,2,0,0,1-1.386-.515c-.44-.392.209-1.035.643-.643a1.344,1.344,0,0,0,1.3.146c.159-.041.552-.069.675-.187a1.086,1.086,0,0,1,.2-.182c.059-.033.119-.05.176-.077A.208.208,0,0,1,57.459,41c-.04-.037-.088-.069-.127-.1a1.018,1.018,0,0,1-.219-.392,4.866,4.866,0,0,1-1.158.176c-.588.018-.588-.894,0-.912a2.927,2.927,0,0,0,1.363-.319,1.348,1.348,0,0,0,.625-.556c0-.01.027-.05.055-.106a.331.331,0,0,1-.232-.159c-.119-.164-.2-.352-.306-.534a.837.837,0,0,0-.616-.378,2.134,2.134,0,0,1-1.8,1.368c-.588.037-.584-.875,0-.911,1.551-.1.88-1.889.652-1.847a3.7,3.7,0,0,1-.5.088,13.649,13.649,0,0,1-1.414-.47,2.847,2.847,0,0,0-2.639.433,1.991,1.991,0,0,1-.584.246.309.309,0,0,0-.155.288v.948a.342.342,0,1,1-.684,0c0-.36-.045-.7-.027-1.021a3.106,3.106,0,0,0-.406.109c-1.788.9-2.668,3.6-2.768,5.509-.046.857-.223,1.677,1.254,1.272a3.761,3.761,0,0,1,1.385.077.321.321,0,0,1,.1.037,1.341,1.341,0,0,1,.593-.023,2.068,2.068,0,0,1,1.04.428.386.386,0,0,1,.44.223,2.213,2.213,0,0,1,.182,1.063c.024.465.792-.132,1.018-.242.519-.241,2.667-.069,2.343-1.026a.457.457,0,0,1-.119-.315.464.464,0,0,1,.666-.483.768.768,0,0,0,.44-.183c.077-.068.155-.128.238-.191a1.548,1.548,0,0,1,.692-.264,2.789,2.789,0,0,1,.689.2,6.989,6.989,0,0,1,.875.242.417.417,0,0,1,.1.055,2.665,2.665,0,0,0,1.1-.352,1.552,1.552,0,0,0,.44-.264,3.627,3.627,0,0,1,.3-.374.369.369,0,0,1-.279-.077,5.115,5.115,0,0,1-1.044.365c-.574.132-.815-.748-.245-.875a4.941,4.941,0,0,0,1.386-.539ZM58.12,73.955a2.119,2.119,0,0,0,.274-1.122,7.637,7.637,0,0,0-.319-1.277,10.432,10.432,0,0,1-1.829.775A6.274,6.274,0,0,0,57.472,73.5C57.673,73.65,57.905,73.8,58.12,73.955ZM57.8,44.064c-.183-.046-.369-.077-.552-.141s-.365-.192-.521-.11c-.246.128-.446.44-.716.5a1.782,1.782,0,0,1-.214.037,1.451,1.451,0,0,1-.457,1.136,1.882,1.882,0,0,1-.925.5c-.414.088-.852-.082-1.263.059-.583.206-1.213.8-1.883.616-.7-.192-.552-.816-.61-1.349a.372.372,0,0,1-.256-.219.772.772,0,0,0-.643-.361c-.333-.055-.274.269-.347.515a4.686,4.686,0,0,0-.118,1.077c-.023.352-.156.606.287.665a.508.508,0,0,1,.324.816.036.036,0,0,1-.009.023c-.384.853.182,2.609,1.319,2.495a3.189,3.189,0,0,0,2.38-1.282.439.439,0,0,1,.03-.044.4.4,0,0,1,.44-.415c.164.009.515.136.661.077a.633.633,0,0,0,.282-.324,2.058,2.058,0,0,1,.255-.534,1.257,1.257,0,0,0,.187-.406c0-.009.009-.014.009-.018a.44.44,0,0,1,.429-.543c.848-.009.957-.574,1.276-1.217A7.987,7.987,0,0,0,57.8,44.064Zm-1.482-8.641a3.324,3.324,0,0,0,.013-2.713,4.829,4.829,0,0,1-.616-1.815c-.5.159-1,.324-1.5.47a6.949,6.949,0,0,1-.807,3.579l.146.023c.739.169,2.094.014,2.759.456Zm1.017,39a12.459,12.459,0,0,1-1.313-.958,5.947,5.947,0,0,1-1.056-1.382c-.835-1.5-.739-3.055-1.067-4.742a3.817,3.817,0,0,1,1.231-3.87,10.466,10.466,0,0,0-1.09.229,9.084,9.084,0,0,1-1.883.324.44.44,0,0,1-.242.209c-.829.3-1.737.1-2.586.378-.692.229-1.407.369-2.1.6-.757,2.877-3.343,7.469.574,8.093.653-.1,1.09-.666,1.537-1.1.538-.528,1.131-1,1.671-1.523.424-.411,1.067.237.647.647-.643.616-1.341,1.177-1.961,1.82-.083.088-.176.176-.264.264,1.368.073,2.777.251,4.1.411C54.809,73.974,56.049,74.325,57.331,74.421Zm-3.2-11.669c.51-.1,1.008-.237,1.505-.384-1.144-.383-2.363-.538-3.544-.807a.38.38,0,0,0-.022.068.366.366,0,0,1,.245.411c-.032.278,0,.7-.055,1.071.06,0,.114,0,.176,0a8.64,8.64,0,0,0,1.694-.355ZM54.047,97.7c-.018-1.236-.063-2.467-.176-3.708-.088-1.049-.424-2.071-.579-3.105a10.732,10.732,0,0,0-.278-2.509,2.287,2.287,0,0,1-.114-.725c-.082.069-.164.137-.251.2-.274.2-.67.429-.792.757a.984.984,0,0,1-.1.186.9.9,0,0,1-.36.762c-1.309.985-.958,2.307-2.375,2.4-.055.369.2.44.246.784a1.093,1.093,0,0,1-.192.771,2.86,2.86,0,0,0-.57,1.583c-.018.164-.269.8-.214.911a.421.421,0,0,1,.055.223c1.627.538,3.119,1.428,4.934,1.446C53.537,97.682,53.795,97.69,54.047,97.7Zm-.692-20.7a4.75,4.75,0,0,0-.023-2.116,4.567,4.567,0,0,1-1.519-.252,4.675,4.675,0,0,0-1.268-.278,3.983,3.983,0,0,1,.748,1.313,11.806,11.806,0,0,0,.785,1.911,1.61,1.61,0,0,1,.2,1.09,2.069,2.069,0,0,0,.537.183C53,78.246,53.153,77.617,53.355,77.006ZM53,82.647a7.205,7.205,0,0,0,.3-2.919c-.018,0-.032.013-.05.018-.447.921-1.354,1.687-1.021,2.815a1.375,1.375,0,0,1-.2,1.056,3.8,3.8,0,0,0-.689,1.759,1.8,1.8,0,0,1,1.655.246.215.215,0,0,0,0-.023A20.7,20.7,0,0,1,53,82.647Zm-.939,4.51c.269-.2.644-.434.375-.8-.252-.338-.83-.16-1.113.013a.3.3,0,0,1-.088.033c-.009.378,0,.738,0,1.076a.032.032,0,0,1,.018.018,2.279,2.279,0,0,1,.133.191C51.608,87.5,51.836,87.326,52.064,87.157Zm.246-7.543c-.251-.082-.487-.176-.675-.232-.046.023-.082.046-.128.069a2.147,2.147,0,0,1-2.171-.406c-1.386,2.568-1.407,6.658-.825,9.324.288,1.313.055,3.671,1.509,1.491.465-.7,1.056-1.1.456-1.9a.023.023,0,0,1-.009-.018.37.37,0,0,1-.169-.61,1.906,1.906,0,0,1-.05-1.2c.388-.83.461-1.759.771-2.617a1.968,1.968,0,0,0,.114-1.407,1.063,1.063,0,0,1-.018-.661A15.663,15.663,0,0,1,52.31,79.61ZM51.645,52.5c-.018-.119.073-.242.055-.361-.028-.182-.046-.36-.077-.538a2.311,2.311,0,0,0-.083-.352c0-.013-.036-.018-.04-.027s-.088,0-.1-.009a1.43,1.43,0,0,1-.528.059V51.6a1.973,1.973,0,0,1,.774.9Zm-.515,26.125c.3-.123.4.028.223-.414a7.167,7.167,0,0,0-.324-.68c-.127-.305-.214-.616-.332-.93a8.539,8.539,0,0,0-1.035-1.884.445.445,0,0,1-.237.1c-.6.064-1.19.169-1.759.219a5.613,5.613,0,0,1,.61.792c.215.374.256.839.457,1.222.34.659,1.531,1.945,2.4,1.584ZM46.19,65.455a5.113,5.113,0,0,0-1.5,2.485,21.5,21.5,0,0,0-.507,3.019,2.67,2.67,0,0,0,.976,2.357c.041.014.082.027.119.037a4.976,4.976,0,0,1-.647-3.106C44.718,68.615,45.662,67.038,46.19,65.455Zm-.3-1.737a5.589,5.589,0,0,1-1.149-.1,9.7,9.7,0,0,1-1.787-.575,4.3,4.3,0,0,0,.027,1.027,14.65,14.65,0,0,0,1.518.237C44.749,64.32,45.721,64.078,45.894,63.718Zm-.625,1.436a1.653,1.653,0,0,1-.547.1.406.406,0,0,1-.082.064c-1.432.679-2.052,3.214-2.375,4.669-.169.748.6,1.692,1.017,2.23a2.481,2.481,0,0,0,.182.192,5.916,5.916,0,0,1-.176-.826,11.039,11.039,0,0,1,.534-3.894,6.1,6.1,0,0,1,1.447-2.539Zm-1.81-.064a7.14,7.14,0,0,0-.825-.146,1.68,1.68,0,0,1-.176.114,4.347,4.347,0,0,1-1.056.219,1.375,1.375,0,0,1-.593-.01c-.055.041-.113.082-.182.128-.183.114.077,1.044.059,1.282a6.056,6.056,0,0,0,.132,1.856c.083.4-.04.625.264,1.012.069.088.142.176.215.264a12.674,12.674,0,0,1,1.08-3.167,7.283,7.283,0,0,1,1.082-1.553Zm-1.633-.844c.356,0,.242-.4.232-.647a3.12,3.12,0,0,1,.041-.9,10.713,10.713,0,0,0-1.213-.42c-.182.279-.059.792-.055,1.085a5.342,5.342,0,0,0,.119.83.5.5,0,0,1,.242.186A3.529,3.529,0,0,1,41.826,64.247ZM40.381,70.7c.3,0,.328,0,.415-.077-.21-.292-.511-.548-.716-.844h-.05a1.35,1.35,0,0,1-.493-.269c-.077-.059-.237-.264-.352-.232a.119.119,0,0,0-.059.01,4.635,4.635,0,0,1,.365.957c.132.461.451.457.889.457Zm-.246-6.074a2.551,2.551,0,0,1-.164-.677c-.251.176-.642.283-.792.566-.319.616.018,1.167.488,1.624h.013a1.831,1.831,0,0,1-.05-.616,1,1,0,0,1,.5-.9Zm-.238-1.8a3.607,3.607,0,0,1,.022-.44,3.179,3.179,0,0,0-1.345.808,1.208,1.208,0,0,0-.187.844,1.344,1.344,0,0,1,.183-.246,1.684,1.684,0,0,1,.52-.4c.136-.06.337-.1.4-.264A.452.452,0,0,1,39.9,62.829Zm-.1,5.763a6.04,6.04,0,0,0-.036-.606,4.051,4.051,0,0,1,.013-.852.407.407,0,0,1-.305-.064.458.458,0,0,1-.059-.036,6.417,6.417,0,0,1-1.09.088c.032.114.068.223.1.342.04.15.036.315.082.461.088.287.228.537.543.44a.784.784,0,0,1,.754.228Zm-1.86-2.508c.01.082.269.1.58.088a2.081,2.081,0,0,1-.338-1.167,2.3,2.3,0,0,1,.009-.246,2.649,2.649,0,0,0-.249,1.326Z" transform="translate(-36.948 -12.456)" fill="#23272a" stroke="#23272a" stroke-width="0.5"/>
      <path id="Tracé_921" data-name="Tracé 921" d="M92.95,51.354s0,.005,0,.005c-.055,0-.055,0,0-.005Z" transform="translate(-43.683 -17.138)" fill="#23272a" stroke="#23272a" stroke-width="0.5"/>
      <path id="Tracé_949" data-name="Tracé 949" d="M76.812,97.616c.1.579-.785.825-.88.246a6.432,6.432,0,0,0-.4-.985c-.136-.383-.146-.807-.315-1.19-.232-.528.552-.994.792-.456.182.406.2.834.352,1.245a7.306,7.306,0,0,1,.452,1.14Z" transform="translate(-41.549 -22.391)" fill="#23272a" stroke="#23272a" stroke-width="0.5"/>
      <path id="Tracé_956" data-name="Tracé 956" d="M74.78,92.81a.457.457,0,1,1-.792.457c-1.181-1.956-1.737-4.4-3.2-6.215-.365-.451.278-1.1.647-.643C72.956,88.292,73.553,90.78,74.78,92.81Z" transform="translate(-41.009 -21.339)" fill="#23272a" stroke="#23272a" stroke-width="0.5"/>
      <path id="Tracé_957" data-name="Tracé 957" d="M74.453,54.911c.457,0,.457.912,0,.912C73.541,55.823,73.541,54.911,74.453,54.911Z" transform="translate(-41.38 -17.566)" fill="#23272a" stroke="#23272a" stroke-width="0.5"/>
      <path id="Tracé_959" data-name="Tracé 959" d="M72.758,21.018a.4.4,0,0,1-.046-.037.062.062,0,0,1,.046.037Z" transform="translate(-41.253 -13.482)" fill="#23272a" stroke="#23272a" stroke-width="0.5"/>
      <path id="Tracé_961" data-name="Tracé 961" d="M71.262,27.619a.467.467,0,0,1,.319.561.455.455,0,0,1-.56.319.758.758,0,0,0-.333-.06.457.457,0,0,1,0-.912A1.449,1.449,0,0,1,71.262,27.619Z" transform="translate(-40.957 -14.27)" fill="#23272a" stroke="#23272a" stroke-width="0.5"/>
      <path id="Tracé_965" data-name="Tracé 965" d="M70.441,28.625a.457.457,0,0,1-.242.88c-.337-.1-.725-.119-.962-.42a.473.473,0,0,1,0-.647.462.462,0,0,1,.648,0C69.981,28.564,70.253,28.571,70.441,28.625Z" transform="translate(-40.819 -14.364)" fill="#23272a" stroke="#23272a" stroke-width="0.5"/>
      <path id="Tracé_966" data-name="Tracé 966" d="M69.414,81.883a.465.465,0,0,1-.164.625.458.458,0,0,1-.616-.164c-.036-.077-.072-.16-.1-.237a.052.052,0,0,0,.023.023.463.463,0,0,1,0-.643.455.455,0,0,1,.643,0A1.5,1.5,0,0,1,69.414,81.883Z" transform="translate(-40.736 -20.749)" fill="#23272a" stroke="#23272a" stroke-width="0.5"/>
      <path id="Tracé_967" data-name="Tracé 967" d="M69.06,63.087a.466.466,0,0,1-.164.625,7.924,7.924,0,0,0-.743.616c-.42.411-1.063-.232-.643-.643a9.867,9.867,0,0,1,.931-.756A.456.456,0,0,1,69.06,63.087Z" transform="translate(-40.61 -18.524)" fill="#23272a" stroke="#23272a" stroke-width="0.5"/>
      <path id="Tracé_970" data-name="Tracé 970" d="M66.5,28.763a.458.458,0,0,1,.812.379.549.549,0,0,1-.515.414.457.457,0,0,1-.456-.456.422.422,0,0,1,.159-.338Zm.3-.119c-.027,0-.059.005-.088.005l-.041.027a.616.616,0,0,1,.129-.033Z" transform="translate(-40.486 -14.397)" fill="#23272a" stroke="#23272a" stroke-width="0.5"/>
      <path id="Tracé_977" data-name="Tracé 977" d="M64.834,28.755a.457.457,0,0,1,.246.88c-.352.088-.743.1-1.09.2-.264.082-.556-.009-.821.069-.493.15-.935.424-1.436.56a.457.457,0,0,1-.242-.88c.561-.15,1.049-.484,1.624-.593S64.264,28.893,64.834,28.755Z" transform="translate(-39.864 -14.417)" fill="#23272a" stroke="#23272a" stroke-width="0.5"/>
      <path id="Tracé_980" data-name="Tracé 980" d="M65.125,75.393a.457.457,0,0,1,0,.912H64.9a.457.457,0,0,1,0-.912Z" transform="translate(-40.26 -20.032)" fill="#23272a" stroke="#23272a" stroke-width="0.5"/>
      <path id="Tracé_981" data-name="Tracé 981" d="M63.976,64.45c.259-.374.968-.136.807.375a.88.88,0,0,1-.342.428.469.469,0,0,1-.647,0,.457.457,0,0,1,0-.643A2.147,2.147,0,0,0,63.976,64.45Z" transform="translate(-40.163 -18.693)" fill="#23272a" stroke="#23272a" stroke-width="0.5"/>
      <path id="Tracé_987" data-name="Tracé 987" d="M62.706,65.775c.528-.264.985.528.461.792a1.759,1.759,0,0,1-.689.214.456.456,0,1,1,0-.911.606.606,0,0,0,.228-.094Z" transform="translate(-39.966 -18.868)" fill="#23272a" stroke="#23272a" stroke-width="0.5"/>
      <path id="Tracé_989" data-name="Tracé 989" d="M60.332,66.379c.912,0,.912.912,0,.912a3.379,3.379,0,0,1-1.262-.169.457.457,0,0,1,.245-.881A3.886,3.886,0,0,0,60.332,66.379Z" transform="translate(-39.571 -18.928)" fill="#23272a" stroke="#23272a" stroke-width="0.5"/>
      <path id="Tracé_997" data-name="Tracé 997" d="M58.026,90.4c.013-.009.022-.023.036-.027A.057.057,0,0,1,58.026,90.4Z" transform="translate(-39.485 -21.834)" fill="#23272a" stroke="#23272a" stroke-width="0.5"/>
      <path id="Tracé_1002" data-name="Tracé 1002" d="M54.824,62.736c.424-.406,1.067.238.643.643a3.475,3.475,0,0,0-.46.44.47.47,0,0,1-.625.164.461.461,0,0,1-.164-.625A4.687,4.687,0,0,1,54.824,62.736Z" transform="translate(-39.019 -18.493)" fill="#23272a" stroke="#23272a" stroke-width="0.5"/>
      <path id="Tracé_1003" data-name="Tracé 1003" d="M54.742,76.738a.464.464,0,0,1,0,.643c-.055.069-.1.156-.151.229a.46.46,0,0,1-.647,0,.468.468,0,0,1,0-.643c.055-.069.1-.16.156-.229a.451.451,0,0,1,.643,0Z" transform="translate(-38.978 -20.177)" fill="#23272a" stroke="#23272a" stroke-width="0.5"/>
      <path id="Tracé_1004" data-name="Tracé 1004" d="M53.487,79.7a.454.454,0,1,1,.875.242,2.321,2.321,0,0,1-.725.961c-.42.411-1.063-.232-.643-.643C53.159,80.1,53.414,79.93,53.487,79.7Z" transform="translate(-38.863 -20.51)" fill="#23272a" stroke="#23272a" stroke-width="0.5"/>
      <path id="Tracé_1005" data-name="Tracé 1005" d="M54.13,32.023a.457.457,0,0,1,0,.912h-.378a.457.457,0,0,1,0-.912Z" transform="translate(-38.918 -14.811)" fill="#23272a" stroke="#23272a" stroke-width="0.5"/>
      <path id="Tracé_1006" data-name="Tracé 1006" d="M52.658,63.654a.455.455,0,0,1,.291.858.68.68,0,0,1-.2.1.455.455,0,0,1-.292-.858A.7.7,0,0,1,52.658,63.654Z" transform="translate(-38.782 -18.617)" fill="#23272a" stroke="#23272a" stroke-width="0.5"/>
      <path id="Tracé_1007" data-name="Tracé 1007" d="M51.441,77.369a.47.47,0,0,1-.319.56c-.156.064-.278.252-.424.333a.456.456,0,0,1-.461-.785c.064-.04.142-.119.219-.182a1.525,1.525,0,0,1,.424-.246.46.46,0,0,1,.561.319Z" transform="translate(-38.523 -20.229)" fill="#23272a" stroke="#23272a" stroke-width="0.5"/>
      <path id="Tracé_1008" data-name="Tracé 1008" d="M50.653,62c.911,0,.911.911,0,.911C50.2,62.91,50.2,62,50.653,62Z" transform="translate(-38.556 -18.42)" fill="#23272a" stroke="#23272a" stroke-width="0.5"/>
      <path id="Tracé_1009" data-name="Tracé 1009" d="M48.387,61.551c.579.049.588.961,0,.911a2.639,2.639,0,0,1-1.144-.369c-.192-.109-.315-.328-.537-.369a.893.893,0,0,1-.452-.2A5.564,5.564,0,0,1,44.8,59.576c-.287-.515.5-.976.785-.461a5.366,5.366,0,0,0,1.081,1.578c.2.169.378.114.579.232.106.078.21.164.305.246a1.564,1.564,0,0,0,.838.379Z" transform="translate(-37.885 -18.045)" fill="#23272a" stroke="#23272a" stroke-width="0.5"/>
      <path id="Tracé_1010" data-name="Tracé 1010" d="M46.12,66.834a.457.457,0,0,1,0,.912h-.835a.457.457,0,0,1,0-.912Z" transform="translate(-37.899 -19.002)" fill="#23272a" stroke="#23272a" stroke-width="0.5"/>
      <path id="Tracé_1011" data-name="Tracé 1011" d="M44.367,53.448a.462.462,0,0,1-.616-.022.457.457,0,0,1,0-.648,1.807,1.807,0,0,1,.4-.223.468.468,0,0,1,.621.164.455.455,0,0,1-.164.625C44.526,53.379,44.449,53.416,44.367,53.448Z" transform="translate(-37.751 -17.276)" fill="#23272a" stroke="#23272a" stroke-width="0.5"/>
    </g>
  </g>
</svg>
