<svg xmlns="http://www.w3.org/2000/svg" width="68.877" height="90.912" viewBox="0 0 68.877 90.912">
  <g id="noun_Beer_Tap_1028555" data-name="noun_Beer Tap_1028555" transform="translate(-186 -65.088)">
    <g id="noun_Beer_Tap_1017782" data-name="noun_Beer Tap_1017782" transform="translate(170 60)">
      <path id="Tracé_1012" data-name="Tracé 1012" d="M84.812,74.9c-.367,3.809-2.591,8.754-6.132,10.838a14.174,14.174,0,0,1-3.585,1.426,4.87,4.87,0,0,0-2.077.9,18.967,18.967,0,0,1-1.893,3.776,2.981,2.981,0,0,1-2.5,1.16H55.714a3.166,3.166,0,0,1-2.622-1.1,39.814,39.814,0,0,1-2.072-4.222,40.375,40.375,0,0,1-2.031-9.9c-.021-.218-.035-.453-.051-.684a2.352,2.352,0,0,1-.686.11,2.518,2.518,0,0,1-.584-.069,2.932,2.932,0,0,1-1.927-1.442,3.121,3.121,0,0,1-.194-2.521,14.192,14.192,0,0,0,.824-4.61,15.96,15.96,0,0,0-.232-1.823c-.317-1.992-.752-4.72-.115-6.625,1.172-3.5,4.237-4.093,5.885-4.409a5.874,5.874,0,0,0,.825-.192c.027-.028.24-.3.412-.5A9.745,9.745,0,0,1,60.763,51h.046A9.385,9.385,0,0,1,68.8,54.789a6.027,6.027,0,0,1,2.971.531c2.4,1.128,3.349,3.571,2.556,6.544,0,.006,0,.01,0,.016.02.161.205,1.7.4,3.861a8.087,8.087,0,0,1,3.346-.724c.213,0,.43.006.647.027a5.939,5.939,0,0,1,4.154,2.174A10.453,10.453,0,0,1,84.812,74.9Zm-9.759,3.189c-.134,1.385-.3,2.627-.478,3.757.133.156.307.2.746.2a2.231,2.231,0,0,0,1.1-.31c1.972-1.1,3.568-4.653,3.823-7.28a6.114,6.114,0,0,0-.884-4.28,1.4,1.4,0,0,0-1-.557c-.091-.007-.187-.01-.276-.01A1.943,1.943,0,0,0,76.3,70.781l-.092.176a3.165,3.165,0,0,1-1.061,1.318A47.245,47.245,0,0,1,75.053,78.087ZM48.854,74.8a116.08,116.08,0,0,1,.859-12.928A1,1,0,0,1,50.705,61H51c.419,0,1.76,1.117,2.208,1.466a5.107,5.107,0,0,0,2.972,1.416,6.9,6.9,0,0,0,3.646-1.462A9.105,9.105,0,0,1,62.542,61h9.93c.389-1.841-.146-3.21-1.553-3.87a4.121,4.121,0,0,0-3.183-.086,2.108,2.108,0,0,0-.707.475c-.1.108-.181.233-.292.332a1.014,1.014,0,0,1-1.268.073,2.966,2.966,0,0,0-3.4-.06,1,1,0,0,1-1.175-1.617,4.815,4.815,0,0,1,5.01-.381,4.194,4.194,0,0,1,.8-.513A7.692,7.692,0,0,0,60.8,53h-.036c-3.279,0-5.045,2.079-6.1,3.309a5.771,5.771,0,0,1-.756.8,3.815,3.815,0,0,1-1.62.547c-1.505.289-3.565.688-4.366,3.083-.481,1.439-.091,3.889.193,5.677a15.514,15.514,0,0,1,.258,2.138,16.167,16.167,0,0,1-.934,5.262,1.12,1.12,0,0,0,.055.9.942.942,0,0,0,.633.461C48.439,75.262,48.708,74.993,48.854,74.8Zm2.125,2.746a37.727,37.727,0,0,0,1.972,9.533,5.23,5.23,0,0,0,3.08.917H68.07a5.984,5.984,0,0,0,3.217-1.1,38.768,38.768,0,0,0,1.776-9c.432-4.5-.335-12.286-.62-14.9H62.907a8.136,8.136,0,0,0-1.995,1.1,8.718,8.718,0,0,1-4.733,1.783,6.853,6.853,0,0,1-4.2-1.837c-.143-.11-.308-.237-.462-.35C51.2,66.723,50.58,73.42,50.979,77.55ZM69.446,90.725c.161-.249.364-.594.592-1A6.805,6.805,0,0,1,68.069,90H56.03a7.712,7.712,0,0,1-1.82-.176c.193.342.381.709.558.983a1.915,1.915,0,0,0,.946.193H68.626A1.158,1.158,0,0,0,69.446,90.725Zm11.9-22.22a3.993,3.993,0,0,0-2.794-1.469c-.172-.016-.326-.02-.477-.02a6.169,6.169,0,0,0-3.168.885c.031.411.06.833.088,1.261A3.779,3.779,0,0,1,78.5,67.625a3.409,3.409,0,0,1,2.386,1.264,7.874,7.874,0,0,1,1.343,5.759c-.309,3.188-2.2,7.362-4.839,8.835a4.226,4.226,0,0,1-2.073.563A3.691,3.691,0,0,1,74.2,83.9c-.115.545-.234,1.063-.359,1.545.236-.073.474-.142.717-.211a12.361,12.361,0,0,0,3.112-1.224c2.827-1.664,4.842-6.038,5.157-9.306A8.482,8.482,0,0,0,81.344,68.5Zm-29.3-54.989a3.778,3.778,0,0,1,.908-2.919,3.651,3.651,0,0,1,5.445.017,3.714,3.714,0,0,1,.913,2.861L58.2,21.057a1.085,1.085,0,0,1-.99.943H54.144a1.083,1.083,0,0,1-.989-.943Zm1.983-.213.978,6.7h1.339l.982-6.735a1.823,1.823,0,0,0-.419-1.338,1.692,1.692,0,0,0-2.466,0A1.844,1.844,0,0,0,54.029,13.3ZM59,24a1,1,0,0,0-1-1H53a1,1,0,0,0-1,1h0a1,1,0,0,0,1,1h5a1,1,0,0,0,1-1ZM42.435,94.2a1,1,0,0,1-.6,1.8H17a1,1,0,0,1-.748-1.664,65.291,65.291,0,0,0,4.729-6.092,6.911,6.911,0,0,0,1.143-4.217L19,45.907c0-1.575-.044-2.927-.081-4.157-.134-4.417-.229-7.624,1.79-11.121C24.95,23.3,35.7,25,36.88,25H37V22.993c-2-.867-2.917-4.993-2.917-8.865,0-4.354,1.161-9.04,3.709-9.04S41.5,9.775,41.5,14.128c0,3.592-.792,7.4-2.5,8.629V25a7.023,7.023,0,0,1,1.176.076c1.6.291,6.422.924,6.422.924H59.709A1.294,1.294,0,0,1,61,27.357v3.58A1.1,1.1,0,0,1,59.792,32H56.66l2.927,11.816a1.174,1.174,0,0,1-.644,1.334l-2.075.705a.982.982,0,0,1-.326.036,1.035,1.035,0,0,1-.908-.62L50.187,33.352A2.223,2.223,0,0,0,48.31,32H46.625l-6.871,2c-.1.02-2.793,0-2.793,0-4.8,1-5.811,6.155-5.811,10.023l.167,38.358a6.994,6.994,0,0,0,2.771,5.528ZM37.664,21.068c.128.089.207.1.352-.065.541-.611,1.484-2.9,1.484-6.875,0-4.566-1.247-6.918-1.721-7.041-.449.122-1.7,2.473-1.7,7.041C36.083,18.315,37.124,20.615,37.664,21.068ZM39,27H38v5h1ZM57.424,43.567l-1.147-4.575-1.2.35,2,4.346ZM46.507,27.99,41,27.181v4.254S46.461,30,46.526,30h1.783A4.209,4.209,0,0,1,52,32.508l2.225,4.979,1.561-.473L54.6,32.239a1.786,1.786,0,0,1,.148-1.489A2.036,2.036,0,0,1,56.172,30H59V28H46.526C46.479,28,46.555,28,46.507,27.99ZM38.845,94l-5.936-4.492a8.984,8.984,0,0,1-3.541-7.118l-.116-38.553C29.252,37.689,32,33.49,36,31.9V26.944c-3-.268-10.38-.607-13.454,4.718-1.736,3-1.753,5.8-1.625,10.044.038,1.249.079,2.611.079,4.127L24.119,83.9a9.028,9.028,0,0,1-1.47,5.456c-1.134,1.712-2.49,3.436-3.489,4.649H38.845ZM80,94H47a1,1,0,0,0,0,2H80a1,1,0,0,0,0-2Z" fill="#23272a"/>
    </g>
  </g>
</svg>
