<svg id="Calque_2" data-name="Calque 2" xmlns="http://www.w3.org/2000/svg" width="19.924" height="19.924" viewBox="0 0 19.924 19.924">
  <g id="Capa_1" data-name="Capa 1">
    <path id="Tracé_835" data-name="Tracé 835" d="M19.146,13.7a.778.778,0,0,0,.778-.778V4.67a3.117,3.117,0,0,0-3.113-3.113H15.8V.778a.778.778,0,1,0-1.557,0v.778H10.7V.778a.778.778,0,0,0-1.557,0v.778h-3.5V.778a.778.778,0,0,0-1.557,0v.778H3.113A3.117,3.117,0,0,0,0,4.67V16.811a3.117,3.117,0,0,0,3.113,3.113h13.7a3.117,3.117,0,0,0,3.113-3.113.778.778,0,0,0-1.557,0,1.557,1.557,0,0,1-1.557,1.557H3.113a1.557,1.557,0,0,1-1.557-1.557V4.67A1.557,1.557,0,0,1,3.113,3.113h.973v.778a.778.778,0,1,0,1.557,0V3.113h3.5v.778a.778.778,0,1,0,1.557,0V3.113h3.541v.778a.778.778,0,0,0,1.557,0V3.113h1.012A1.557,1.557,0,0,1,18.368,4.67v8.25A.778.778,0,0,0,19.146,13.7Z" transform="translate(0 0)" fill="#707070"/>
    <circle id="Ellipse_86" data-name="Ellipse 86" cx="1" cy="1" r="1" transform="translate(4 7.336)" fill="#707070"/>
    <circle id="Ellipse_87" data-name="Ellipse 87" cx="1" cy="1" r="1" transform="translate(11 7.336)" fill="#707070"/>
    <ellipse id="Ellipse_88" data-name="Ellipse 88" cx="0.5" cy="1" rx="0.5" ry="1" transform="translate(15 7.336)" fill="#707070"/>
    <ellipse id="Ellipse_89" data-name="Ellipse 89" cx="1" cy="0.5" rx="1" ry="0.5" transform="translate(4 11.336)" fill="#707070"/>
    <circle id="Ellipse_90" data-name="Ellipse 90" cx="1" cy="1" r="1" transform="translate(4 14.336)" fill="#707070"/>
    <ellipse id="Ellipse_91" data-name="Ellipse 91" cx="0.5" cy="1" rx="0.5" ry="1" transform="translate(8 7.336)" fill="#707070"/>
    <circle id="Ellipse_92" data-name="Ellipse 92" cx="0.5" cy="0.5" r="0.5" transform="translate(8 11.336)" fill="#707070"/>
    <ellipse id="Ellipse_93" data-name="Ellipse 93" cx="0.5" cy="1" rx="0.5" ry="1" transform="translate(8 14.336)" fill="#707070"/>
    <ellipse id="Ellipse_94" data-name="Ellipse 94" cx="1" cy="0.5" rx="1" ry="0.5" transform="translate(11 11.336)" fill="#707070"/>
    <circle id="Ellipse_95" data-name="Ellipse 95" cx="0.5" cy="0.5" r="0.5" transform="translate(15 11.336)" fill="#707070"/>
    <circle id="Ellipse_96" data-name="Ellipse 96" cx="1" cy="1" r="1" transform="translate(11 14.336)" fill="#707070"/>
  </g>
</svg>
