<svg xmlns="http://www.w3.org/2000/svg" width="68.614" height="76.698" viewBox="0 0 68.614 76.698">
  <g id="noun_Ramen_2385918" transform="translate(-11.97 -2.859)">
    <path id="Tracé_909" data-name="Tracé 909" d="M79.106,47.961a7.4,7.4,0,0,0-.613-3.064,10.4,10.4,0,0,0-9.619-6.122,11.351,11.351,0,0,0-1.256.074,3.338,3.338,0,0,0-.07-1.076,3.38,3.38,0,0,0,.035-4.661,3.379,3.379,0,0,0-2.3-4.051,3.378,3.378,0,0,0-4.02-2.361,3.372,3.372,0,0,0-2.086-.936l5.332-10.957a2.365,2.365,0,1,0-4.277-2.018L53.418,27.536a3.392,3.392,0,0,0-.87,1.431,3.372,3.372,0,0,0-2.395,3.823c-.109.007-.217.017-.326.025-.309-2.874-2.217-5.637-5.5-7.887a19.117,19.117,0,0,0-4.285-2.215L35.606,4.636a2.366,2.366,0,1,0-4.58,1.185l4.264,15.952c-2.977-.058-5.337.972-6.672,2.915a7.43,7.43,0,0,0-.485,6.816c-.886-.041-1.579-.07-1.758-.079a2.86,2.86,0,0,0-.331-.019c-1.065,0-1.488.634-1.526,1.175a3.3,3.3,0,0,1-1.745,2.8,5.362,5.362,0,0,1-2.161.432A5.2,5.2,0,0,1,17.372,34.8a4.893,4.893,0,0,0,1.708-1.812c.924-1.572,1.344-3.729.361-4.807a1.616,1.616,0,0,0-1.212-.535,3.1,3.1,0,0,0-2.26,1.365,2.537,2.537,0,0,0-1.4-1.227,1.662,1.662,0,0,0-1.686.464,4.18,4.18,0,0,0-.914,2.961,5.42,5.42,0,0,0,1.467,3.91,7.408,7.408,0,0,0,.6,3.065,10.239,10.239,0,0,0,7.241,5.881,9.749,9.749,0,0,0-.988,2.31,5.111,5.111,0,0,0-.548.441l-.008.008s0,0-.007,0a2.634,2.634,0,0,0-.8,1.294.132.132,0,0,1,0,.025,1.777,1.777,0,0,0-.032.19c0,.016,0,.028-.008.044-.007.074-.013.148-.013.223s.007.141.013.21c0,.019,0,.041.008.06.007.051.017.1.024.152,0,.018.01.041.015.061.013.051.027.1.046.154l.015.051a2.43,2.43,0,0,0,.326.611l.01.014c.046.064.1.127.149.19a.054.054,0,0,0,.01.014c.055.065.118.129.181.193.082.386.167.766.258,1.145a6.45,6.45,0,0,0-.083,1.034,6.134,6.134,0,0,0,1.884,4.465A31.94,31.94,0,0,0,24.033,61.4c-.2.178-.456.385-.779.639-1.361,1.059-3.412,2.658-3.412,5.781S21.9,72.54,23.254,73.6s1.5,1.317,1.5,1.881a2.469,2.469,0,0,0,4.938,0c0-3.123-2.053-4.721-3.412-5.781s-1.506-1.317-1.506-1.881.149-.822,1.506-1.881c.224-.173.465-.362.708-.567q.924,1.047,1.941,2a26.758,26.758,0,0,0,3.909,3.009v2.9c0,3.52,5.549,6.277,12.633,6.277S58.107,76.8,58.107,73.279V70.544a26.245,26.245,0,0,0,4.159-3.157,31.742,31.742,0,0,0,9.3-17.066,2.2,2.2,0,0,0,.768-2,.415.415,0,0,0-.007-.046c-.013-.083-.032-.161-.053-.239-.011-.032-.019-.063-.029-.094a2.1,2.1,0,0,0-.08-.2c-.018-.043-.04-.085-.06-.128s-.061-.112-.1-.166-.063-.094-.1-.141l-.01-.016.052,0A5.2,5.2,0,0,1,75.176,48.3a4.891,4.891,0,0,0-1.7,1.817c-.92,1.574-1.336,3.732-.349,4.807a1.618,1.618,0,0,0,1.208.533h0A3.1,3.1,0,0,0,76.6,54.086a2.539,2.539,0,0,0,1.4,1.224,1.655,1.655,0,0,0,.465.066h0a1.684,1.684,0,0,0,1.213-.534,4.172,4.172,0,0,0,.908-2.965A5.428,5.428,0,0,0,79.106,47.961ZM67.339,40.645,67.546,42c-.336-.324-.684-.635-1.045-.926a3.393,3.393,0,0,0,.319-.326C66.993,40.706,67.166,40.674,67.339,40.645ZM60.268,28.206a.871.871,0,0,0,1.081.3,1.664,1.664,0,0,1,1.5.069,1.636,1.636,0,0,1,.813,1.293.871.871,0,0,0,.786.8A1.636,1.636,0,0,1,65.779,33a.871.871,0,0,0,.282,1.085,1.639,1.639,0,0,1-.016,2.689.867.867,0,0,0-.3,1.079,1.652,1.652,0,0,1-.068,1.5A1.632,1.632,0,0,1,65,40c-.367-.232-.745-.451-1.134-.652a8.635,8.635,0,0,0-1.113-1.305,3.559,3.559,0,0,0,.2-.306,4.9,4.9,0,0,0-6.481-6.4l1.8-3.706a1.616,1.616,0,0,1,.642-.136A1.634,1.634,0,0,1,60.268,28.206Zm-1.842,6.448a15.774,15.774,0,0,0-2.307-1.019,3.169,3.169,0,0,1,4.114-.414,3.054,3.054,0,0,1,1.247,3.552A16.218,16.218,0,0,0,58.426,34.654ZM60.249,38q-.745-.176-1.511-.282a15.6,15.6,0,0,0-2.193-.141,12.173,12.173,0,0,0-2.631-.988l.777-1.6a13.794,13.794,0,0,1,2.916,1.171A14.72,14.72,0,0,1,60.249,38Zm1.564-24.476a.623.623,0,0,1,1.129.525L48.181,44.395c-.162-.1-.324-.2-.487-.3Zm3.905,35.707a1.648,1.648,0,0,1,.694,1.337,1.571,1.571,0,0,1-.034.325l-.007,0c-.175.051-.356.1-.543.152-.019,0-.042.013-.065.017-.192.051-.4.1-.6.156l-.022.006c-.19.046-.387.093-.589.138l-.156.036c-.217.049-.435.1-.667.144s-.465.094-.7.139A4.955,4.955,0,0,0,60.9,46.953c-1.743-1.242-4.5-1.565-7.016,1.252a.871.871,0,1,0,1.3,1.16c1.487-1.662,3.245-2.034,4.7-.994,1.112.793,1.883,2.412,1.2,3.652-.769.121-1.568.232-2.386.334l-.28.034-.5.058c-.055.007-.113.012-.171.017a.819.819,0,0,1-.147-.578.833.833,0,0,1,.477-.465.871.871,0,1,0-.769-1.564,2.428,2.428,0,0,0-1.4,1.623,2.326,2.326,0,0,0,.034,1.171c-.4.036-.8.07-1.2.1l-.057,0-1.1.081-.157.012c-.365.023-.74.047-1.112.067l-.309.017c-.137.008-.277.015-.414.019.007-.017.012-.031.017-.048a.869.869,0,0,0-.282-1.087,1.636,1.636,0,0,1,.019-2.689.869.869,0,0,0,.3-1.081,1.634,1.634,0,0,1,.941-2.227v0a1.551,1.551,0,0,1,.422-.086.871.871,0,0,0,.8-.788,1.637,1.637,0,0,1,2.339-1.324.875.875,0,0,0,1.087-.283,1.637,1.637,0,0,1,2.686.017.874.874,0,0,0,1.084.3,1.632,1.632,0,0,1,2.313,1.361.871.871,0,0,0,.788.8,1.636,1.636,0,0,1,1.325,2.338A.87.87,0,0,0,65.718,49.235ZM52.209,44.112c-.066.018-.133.04-.2.064h0a3.392,3.392,0,0,0-1.8,1.5c-.026.046-.049.094-.073.139-.166-.139-.338-.273-.509-.408l.165-.341a2.56,2.56,0,0,0,.615-.3,11.355,11.355,0,0,1,1.982-1.1A3.061,3.061,0,0,0,52.209,44.112Zm-3.162,5.375a16.809,16.809,0,0,0-1.962-1.657,15.186,15.186,0,0,0,.311-1.9,18.012,18.012,0,0,1,2.393,1.85c.017.117.034.23.06.348A3.431,3.431,0,0,0,49.047,49.487Zm-2.491.193a19.172,19.172,0,0,1,2.236,3.371q-.978.026-1.975.036A17.446,17.446,0,0,0,45.8,51.539,19.248,19.248,0,0,0,46.557,49.68Zm-.638-10.425a10.762,10.762,0,0,1,2.438-.967c.037-.01.075-.017.112-.026l-1.042,2.255a2.588,2.588,0,0,0-.553.533A7.16,7.16,0,0,0,45.919,39.255ZM50.2,34.512l-.846,1.832a12.487,12.487,0,0,0-1.43.277,12.634,12.634,0,0,0-3.258,1.36,5.957,5.957,0,0,0-.534-.365c-.156-.092-.314-.175-.474-.253l-.173-.7a14.37,14.37,0,0,1,4-1.731A13.854,13.854,0,0,1,50.2,34.512ZM39.4,45.621a5.336,5.336,0,0,0-2.748-.762,5.394,5.394,0,0,0-4.6,2.6,5.324,5.324,0,0,0-.6,4.055,5.472,5.472,0,0,0,.241.728h-.007c-.721-.1-1.422-.2-2.1-.316a11.018,11.018,0,0,1,1.855-6.659c2.266-3.779,5.709-6.4,8.762-6.747a4.719,4.719,0,0,1,.667-.04,4.537,4.537,0,0,1,2.368.624c1.529.915,2.407,2.76,2.48,5.193a15.34,15.34,0,0,1-2.359,8.118c-.134.224-.27.435-.409.647-.582-.016-1.163-.027-1.741-.051.012-.017.019-.03.031-.047A5.361,5.361,0,0,0,39.4,45.621Zm.343,6.455a3.589,3.589,0,0,1-.7.846h-.007c-.433-.023-.862-.05-1.29-.079l-.115-.008c-.4-.026-.784-.055-1.175-.086l-.139-.012q-.579-.046-1.146-.1-.058,0-.112-.012c-.4-.036-.794-.075-1.184-.119l-.027,0a3.613,3.613,0,1,1,5.894-.428ZM28.931,46.321a2.751,2.751,0,0,0-1.852,1.186,4.343,4.343,0,0,0-1.446-.592,3.467,3.467,0,0,1,2.994-1.99,2.872,2.872,0,0,1,.658.075c.092.019.186.037.277.049Q29.213,45.686,28.931,46.321Zm-7.2,1.715a.7.7,0,0,1,0-.263,7.224,7.224,0,0,1,6.891-6.312,6.429,6.429,0,0,1,1.432.162.872.872,0,1,1-.388,1.7,4.641,4.641,0,0,0-1.044-.119,5.318,5.318,0,0,0-4.876,3.739A4.777,4.777,0,0,0,21.732,48.036ZM37.354,35.082a13.967,13.967,0,0,1,1.4-.351l.451,1.687a12.212,12.212,0,0,0-1.338.329A13.086,13.086,0,0,0,32.257,40.3c-.066.069-.219.289-.393.527a2.571,2.571,0,0,0-1.424-.88c-.022-.006-.046-.009-.068-.014a8.286,8.286,0,0,1,.616-.827A13.054,13.054,0,0,1,37.354,35.082Zm.385-4.16.574,2.142c-.39.081-.777.175-1.158.285A3.586,3.586,0,0,1,37.74,30.921Zm4.79,1.855-.817-3.323a3.5,3.5,0,0,1,1.073.5,3.6,3.6,0,0,1,1.57,3.06A15.776,15.776,0,0,0,42.529,32.776Zm1.047,1.85c-.175.093-.346.193-.521.292l-.089-.371C43.171,34.57,43.374,34.595,43.576,34.626Zm-.227-8.262c2.858,1.961,4.517,4.3,4.759,6.673-.353.066-.707.141-1.054.23-.265.069-.528.147-.788.229-.061-.021-.126-.042-.191-.061a5.341,5.341,0,0,0-2.3-4.92,5.277,5.277,0,0,0-2.514-.906L40.568,24.8A17.886,17.886,0,0,1,43.349,26.364ZM32.71,5.379a.623.623,0,0,1,1.205-.318L41.724,36.8q-.306-.039-.621-.051ZM30.059,25.673c1.006-1.469,2.907-2.234,5.332-2.157.123,0,.251.015.374.023L37.2,28.918a5.164,5.164,0,0,0-.88.983,5.317,5.317,0,0,0-.845,4.033,16.229,16.229,0,0,0-2.8,1.5C29.465,32.066,28.381,28.117,30.059,25.673ZM16.676,31.179a5,5,0,0,1,.273-.532,2.649,2.649,0,0,1,1.231-1.252,3.636,3.636,0,0,1-.6,2.708,3.518,3.518,0,0,1-.913,1.081,6.729,6.729,0,0,0,.084-1.1A7.777,7.777,0,0,0,16.676,31.179ZM14.6,33.814a3.621,3.621,0,0,1-.886-2.631,2.683,2.683,0,0,1,.4-1.71,3.633,3.633,0,0,1,.888,2.631A2.641,2.641,0,0,1,14.6,33.814Zm3.976,7.211.988-1.271a.872.872,0,1,0-1.377-1.069L17.241,39.9a8.145,8.145,0,0,1-1.6-2.4,5.627,5.627,0,0,1-.458-2.022,1.629,1.629,0,0,0,.326-.166,6.18,6.18,0,0,0,5.1,2.253,7.107,7.107,0,0,0,2.87-.582A4.942,4.942,0,0,0,26.2,33.162c.019,0,.037,0,.056,0l2.675.122a16.018,16.018,0,0,0,2.33,3.2q-.522.431-1.013.909L28.387,36a.872.872,0,1,0-1.045,1.4l1.708,1.276a6.34,6.34,0,0,0-.772,1.074,8.212,8.212,0,0,0-3.381.887l-.249-1.661a.872.872,0,0,0-1.724.26l.37,2.458a8.831,8.831,0,0,0-.849.8A8.959,8.959,0,0,1,18.576,41.025Zm4.6,26.784c0,1.417.809,2.118,2.122,3.143s2.8,2.177,2.8,4.518a.871.871,0,1,1-1.743,0c0-1.419-.809-2.12-2.124-3.143s-2.794-2.178-2.794-4.518,1.485-3.5,2.794-4.518,2.124-1.724,2.124-3.143-.809-2.119-2.124-3.142-2.794-2.178-2.794-4.518a4.4,4.4,0,0,1,1.207-3.1l0,0a3.025,3.025,0,0,1,2.066-.971h.076a2.722,2.722,0,0,1,2.682,2.708,2.9,2.9,0,0,1-.034.407c-.6-.126-1.173-.258-1.71-.4V51.12a.984.984,0,0,0-.988-.963,1.1,1.1,0,0,0-.76.345,2.748,2.748,0,0,0-.794,1.985c0,1.419.809,2.119,2.122,3.143s2.8,2.178,2.8,4.518-1.485,3.5-2.8,4.518S23.178,66.392,23.178,67.809Zm33.184,5.462c0,2.144-4.471,4.534-10.888,4.534s-10.889-2.39-10.889-4.534v-1.9a23.8,23.8,0,0,0,21.776.137Zm-10.751-.933A23.1,23.1,0,0,1,28.26,64.118a5.99,5.99,0,0,0,1.436-3.97,6.835,6.835,0,0,0-3.133-5.56,5.055,5.055,0,0,1-.822-.507c-.8-.677-.508-1.271-.192-1.193.5.126,1.04.246,1.6.361l0,0c.051.01.1.017.156.029.2.044.412.084.623.122l.287.055.142.026,0,0A99.413,99.413,0,0,0,45.617,54.84a95.616,95.616,0,0,0,18.469-1.59,26.8,26.8,0,0,0,5.371-1.592C66.249,63.921,56.662,72.338,45.612,72.338Zm23.5-23.663a.871.871,0,0,1-1.17-.382c-.19-.374-.4-.734-.613-1.085a3.362,3.362,0,0,0-2.39-3,3.378,3.378,0,0,0-3.99-2.366l-.066-.024a3.354,3.354,0,0,0-3.384-.74,12.123,12.123,0,0,0-3.057.163,12.457,12.457,0,0,0-3.331,1.117l1.142-2.351a13.888,13.888,0,0,1,6.251-.577A14.5,14.5,0,0,1,69.5,47.507.873.873,0,0,1,69.114,48.675Zm6.765,3.234c-.08.173-.165.351-.27.532A2.677,2.677,0,0,1,74.382,53.7a3.62,3.62,0,0,1,.6-2.711,3.551,3.551,0,0,1,.913-1.084,6.385,6.385,0,0,0-.083,1.1A6.73,6.73,0,0,0,75.879,51.91Zm1.158-4.132a6.191,6.191,0,0,0-5.09-2.236,7.516,7.516,0,0,0-1.493.149c-.285-.479-.586-.942-.906-1.385a.84.84,0,0,0,.047-.433l-.511-3.344a8.988,8.988,0,0,1,4.866,1.54l-.984,1.275a.872.872,0,0,0,1.377,1.068l.94-1.217a8.164,8.164,0,0,1,1.611,2.4,5.639,5.639,0,0,1,.463,2.022A1.654,1.654,0,0,0,77.037,47.777Zm1.4,5.83a3.611,3.611,0,0,1-.893-2.63,2.681,2.681,0,0,1,.4-1.71A3.606,3.606,0,0,1,78.84,51.9,2.634,2.634,0,0,1,78.442,53.608Z" transform="translate(0 0)" fill="#2c2f33"/>
  </g>
</svg>
