<svg xmlns="http://www.w3.org/2000/svg" width="63.071" height="47.146" viewBox="0 0 63.071 47.146">
  <g id="Groupe_382" data-name="Groupe 382" transform="matrix(-1, -0.017, 0.017, -1, 133.964, 87.702)">
    <path id="Tracé_314" data-name="Tracé 314" d="M99.848,39.3v2.913q-13.023,7.5-16.081,19.009a11.311,11.311,0,0,1,6.013-2.149A9.648,9.648,0,0,1,97.4,62.714a13.268,13.268,0,0,1,3.1,8.911A13.074,13.074,0,0,1,96.42,81.41a13.9,13.9,0,0,1-10.045,3.955A12.269,12.269,0,0,1,76.4,80.333a19.434,19.434,0,0,1-4.009-12.519q0-10.549,8.067-18.906A30.96,30.96,0,0,1,99.848,39.3Zm34.173,0v2.913q-13.028,7.5-16.085,19.009A11.372,11.372,0,0,1,124,59.072a9.6,9.6,0,0,1,7.567,3.642,13.249,13.249,0,0,1,3.1,8.911,13.11,13.11,0,0,1-4.058,9.785,13.8,13.8,0,0,1-10.018,3.955,12.245,12.245,0,0,1-10-5.032,19.53,19.53,0,0,1-3.986-12.519q0-10.549,8.044-18.906A30.857,30.857,0,0,1,134.021,39.3Z" transform="translate(0 0)" fill="#2c2f33"/>
  </g>
</svg>
