<svg xmlns="http://www.w3.org/2000/svg" width="42.529" height="36.192" viewBox="0 0 42.529 36.192">
  <g id="noun_Rock_Climbing_Shoes_647067" data-name="noun_Rock Climbing Shoes_647067" transform="translate(-1.198 -1.807)">
    <path id="Tracé_910" data-name="Tracé 910" d="M42.581,31.021a.366.366,0,0,0-.065-.3l-6.357-7.992a2.368,2.368,0,0,1,.087-.256L33.1,18.968l-.491.055-1.5-1.548a.387.387,0,0,0-.044-.1L27.72,12.093c0-.005-.011-.016-.011-.027a4.926,4.926,0,0,0-.567-.594L25.479,8.615c-5.3,1.777-6.4,4.656-6.58,5.266a4.169,4.169,0,0,1-3.325.458c-3.38-1.03-5.255-6.553-5.272-6.6a.169.169,0,0,0-.033-.071c.594-1.739.894-3.658-.005-4.868-2-2.677-5.419.627-3.991,3.309a2.474,2.474,0,0,1,.632,2.453l-.033-.005A29.958,29.958,0,0,0,4.7,11.1l-.2-.2a11.539,11.539,0,0,0-1.739,2.366A11.4,11.4,0,0,0,1.209,19.36c.245,5.277,4.934,5.926,9.709,6.133,4.836.224,13.062,4.176,15.924,6.248A40.315,40.315,0,0,0,42.641,38l.234-.512a40.276,40.276,0,0,1-15.624-6.3,42.4,42.4,0,0,0-7.234-3.832c-.507-.218-1.052-.442-1.63-.665l-.2-.327c5.294,1.423,10.941,5.561,10.941,5.561a45.2,45.2,0,0,0,13.831,5.212l.267-.654.234-.534C44.211,32.919,43.186,31.545,42.581,31.021ZM31.231,23.4l2.546,2.164a.749.749,0,0,1,.256.491.79.79,0,0,1-.169.529.748.748,0,0,1-.556.251.764.764,0,0,1-.469-.174L30.293,24.5a.736.736,0,0,1-.082-1.025.748.748,0,0,1,.562-.256A.682.682,0,0,1,31.231,23.4ZM4.551,13.647s3.3,1.1,4.9,7.447c0,0-6,.262-6.079-4.22C3.373,16.874,3.3,13.3,4.551,13.647ZM7.7,24.365a3.352,3.352,0,0,1-.463.027,3.029,3.029,0,0,1-.447-.027,9.837,9.837,0,0,1-1.87-.545,5.175,5.175,0,0,1-1.483-1.161.311.311,0,0,1,.044-.436.32.32,0,0,1,.447.049,4.558,4.558,0,0,0,3.718,1.477.317.317,0,0,1,.343.283A.308.308,0,0,1,7.7,24.365Zm3.02-.2a.319.319,0,0,1-.316.289h-.022a13.444,13.444,0,0,0-1.385-.027.309.309,0,0,1-.327-.3.316.316,0,0,1,.3-.327,14.1,14.1,0,0,1,1.466.033A.307.307,0,0,1,10.716,24.169ZM9.185,10.2c.229-.452.485-.987.725-1.565.638,1.586,2.47,5.446,5.468,6.367a4.6,4.6,0,0,0,1.3.2,5.092,5.092,0,0,0,2.23-.551,5.7,5.7,0,0,1-6.422.671C10.76,14.5,9.746,12.131,9.185,10.2Zm9.677,14.131a.549.549,0,0,1-.551-.551.551.551,0,1,1,1.1,0A.549.549,0,0,1,18.861,24.327Zm2.377,1.957a.556.556,0,1,1,.551-.556A.561.561,0,0,1,21.238,26.284Zm.016-1.957a.549.549,0,0,1-.551-.551.551.551,0,1,1,1.1,0A.549.549,0,0,1,21.254,24.327Zm2.377,0a.549.549,0,0,1-.551-.551.551.551,0,1,1,1.1,0A.553.553,0,0,1,23.631,24.327Zm4.661-1.712a.339.339,0,0,0-.48.038l-.545.632c-.153-.1-.322-.2-.491-.294l.409-.823a.339.339,0,1,0-.605-.305l-.431.856c-.174-.071-.365-.136-.556-.2l.311-.91a.339.339,0,0,0-.638-.229l-.327.954c-.18-.049-.371-.076-.556-.114l.234-.861a.342.342,0,0,0-.24-.42.332.332,0,0,0-.414.234l-.256.921c-.185-.022-.371-.049-.562-.071l.185-.867a.343.343,0,0,0-.671-.142l-.2.943c-.191-.016-.376-.027-.567-.038l.142-.9a.339.339,0,0,0-.283-.387.334.334,0,0,0-.393.283l-.153.97-.562-.016.1-.932a.338.338,0,0,0-.305-.371.348.348,0,0,0-.382.305l-.1,1c-.185,0-.371.005-.556.011l.044-.965a.344.344,0,0,0-.687-.027l-.044,1.014c-.191.005-.371.016-.551.027l-.016-.927a.346.346,0,0,0-.354-.333.341.341,0,0,0-.333.349l.016.954c-.185.011-.365.027-.534.049l-.1-.883a.343.343,0,0,0-.681.076l.1.856c-.256.022-.474.055-.665.076l-4.061-6.618a3.9,3.9,0,0,0,.665.4,6.8,6.8,0,0,0,4.781.518A6.505,6.505,0,0,0,20.448,14c.959-1.292,2.753-2.693,4.421-2.709a2.635,2.635,0,0,1,1.854.725l-4.459,4.459s-1.368,2,1.821,2.737c2.475.572,4.5-2.023,5.283-3.233l.583.932c-.262,3.342.687,4.776,1.379,5.375-.076.093-.164.2-.245.283a1.3,1.3,0,0,0-.322-.038,1.381,1.381,0,0,0-1.063.5,1.414,1.414,0,0,0-.322,1.134c-.191.164-.4.311-.616.469-.414-.387-.752-.7-.97-.9l.54-.627A.356.356,0,0,0,28.292,22.615ZM41.262,31.79c-1.821.861-5.441-1.407-8.521-3.794.147-.136.3-.3.469-.491a.3.3,0,0,0,.1.011,1.376,1.376,0,0,0,1.063-.491A1.431,1.431,0,0,0,34.715,26a1.613,1.613,0,0,0-.065-.305,13.231,13.231,0,0,0,1.227-2.224l5.948,7.474Z" transform="translate(0 0)" fill="#fff"/>
  </g>
</svg>
